<svg width="35" height="39" viewBox="0 0 35 39" fill="none" xmlns="http://www.w3.org/2000/svg">
<path d="M4.44656 17.7653L6.35537 16.7201C6.77815 16.4898 7.09298 16.1012 7.23331 15.6406C8.203 12.4545 10.871 10.3136 13.8718 10.3136H17.5797C18.2166 10.3136 18.8085 9.9844 19.1449 9.44288L21.3056 5.9581C22.5361 9.63358 23.2935 13.4602 23.9826 16.936C24.1787 17.9344 25.1537 18.5893 26.1468 18.3842C27.1453 18.1881 27.793 17.2184 27.5951 16.2199C26.4599 10.4845 25.4272 5.72782 23.3763 1.09524C23.101 0.469166 22.5019 0.0499847 21.8201 0.00141047C21.1149 -0.0237766 20.4852 0.28926 20.1272 0.868557L16.5542 6.62915H13.8718C9.48033 6.62915 5.58357 9.49325 3.95722 13.8326L2.67629 14.5342C0.738703 15.5957 -0.32634 17.9254 0.0892425 20.2013C1.1291 25.9025 5.7275 30.0673 11.0833 30.2076L9.82935 34.4804C9.5415 35.4573 10.101 36.481 11.0761 36.767C11.2506 36.8192 11.4251 36.8426 11.596 36.8426C12.393 36.8426 13.127 36.3226 13.3627 35.5203L15.3111 28.8889C15.4748 28.3312 15.3669 27.7303 15.0196 27.2644C14.6706 26.8002 14.1255 26.5268 13.5444 26.5268H11.3639C7.66868 26.5268 4.45196 23.5889 3.71255 19.5392C3.58122 18.816 3.88886 18.0712 4.44656 17.7653Z" fill="currentColor"/>
<path d="M33.3612 26.7104C32.4671 26.5861 31.5705 26.5048 30.6737 26.4308C30.5997 25.5341 30.5185 24.6375 30.3942 23.7433C30.2645 22.8104 29.2781 22.1046 28.104 22.1046H25.316C24.1418 22.1046 23.1553 22.8104 23.0257 23.7433C22.9014 24.6375 22.8201 25.5341 22.7462 26.4308C21.8493 26.5048 20.9527 26.5861 20.0587 26.7104C19.1259 26.8401 18.4199 27.8264 18.4199 29.0006V31.7886C18.4199 32.9628 19.1258 33.9492 20.0586 34.0788C20.9526 34.2032 21.8493 34.2845 22.746 34.3585C22.82 35.2552 22.9014 36.1518 23.0257 37.0459C23.1553 37.9788 24.1418 38.6847 25.316 38.6847H28.104C29.2781 38.6847 30.2645 37.9788 30.3942 37.0459C30.5185 36.1518 30.5998 35.2552 30.6738 34.3585C31.5705 34.2845 32.4671 34.2032 33.3612 34.0788C34.2942 33.9492 35 32.9628 35 31.7886V29.0006C35 27.8264 34.2942 26.8401 33.3612 26.7104Z" fill="currentColor"/>
</svg>
